<svg width="418" height="171" viewBox="0 0 418 171" fill="none" xmlns="http://www.w3.org/2000/svg">
<path d="M2.08164 95.706C2.08164 91.3324 3.02784 87.4425 4.92024 84.0362C6.81264 80.5878 9.44097 77.9174 12.8052 76.025C16.2116 74.0906 20.0594 73.1234 24.3489 73.1234C29.6055 73.1234 34.1053 74.5111 37.848 77.2866C41.5907 80.0622 44.0929 83.847 45.3545 88.641H33.4955C32.6124 86.7907 31.3508 85.3819 29.7107 84.4147C28.1127 83.4474 26.2833 82.9638 24.2227 82.9638C20.9005 82.9638 18.2091 84.1203 16.1485 86.4332C14.0879 88.7462 13.0576 91.8371 13.0576 95.706C13.0576 99.5749 14.0879 102.666 16.1485 104.979C18.2091 107.292 20.9005 108.448 24.2227 108.448C26.2833 108.448 28.1127 107.965 29.7107 106.997C31.3508 106.03 32.6124 104.621 33.4955 102.771H45.3545C44.0929 107.565 41.5907 111.35 37.848 114.125C34.1053 116.859 29.6055 118.226 24.3489 118.226C20.0594 118.226 16.2116 117.279 12.8052 115.387C9.44097 113.453 6.81264 110.782 4.92024 107.376C3.02784 103.969 2.08164 100.08 2.08164 95.706ZM62.7469 71.231V117.91H51.9602V71.231H62.7469ZM75.9887 79.0529C74.0963 79.0529 72.5404 78.5062 71.3208 77.4128C70.1433 76.2774 69.5546 74.8896 69.5546 73.2495C69.5546 71.5674 70.1433 70.1796 71.3208 69.0862C72.5404 67.9508 74.0963 67.3831 75.9887 67.3831C77.8391 67.3831 79.353 67.9508 80.5305 69.0862C81.75 70.1796 82.3598 71.5674 82.3598 73.2495C82.3598 74.8896 81.75 76.2774 80.5305 77.4128C79.353 78.5062 77.8391 79.0529 75.9887 79.0529ZM81.3505 82.7115V117.91H70.5639V82.7115H81.3505ZM87.0228 100.311C87.0228 96.6522 87.7587 93.4561 89.2306 90.7227C90.7445 87.9892 92.8262 85.8865 95.4755 84.4147C98.1669 82.9428 101.237 82.2069 104.685 82.2069C109.101 82.2069 112.78 83.3633 115.724 85.6763C118.71 87.9892 120.665 91.2483 121.591 95.4537H110.11C109.143 92.7623 107.271 91.4166 104.496 91.4166C102.519 91.4166 100.942 92.1945 99.765 93.7505C98.5875 95.2644 97.9987 97.4512 97.9987 100.311C97.9987 103.17 98.5875 105.378 99.765 106.934C100.942 108.448 102.519 109.205 104.496 109.205C107.271 109.205 109.143 107.859 110.11 105.168H121.591C120.665 109.289 118.71 112.527 115.724 114.882C112.738 117.237 109.059 118.415 104.685 118.415C101.237 118.415 98.1669 117.679 95.4755 116.207C92.8262 114.735 90.7445 112.632 89.2306 109.899C87.7587 107.166 87.0228 103.969 87.0228 100.311ZM148.871 117.91L138.147 103.149V117.91H127.36V71.231H138.147V97.0307L148.808 82.7115H162.118L147.483 100.374L162.244 117.91H148.871ZM189.997 117.91L187.007 115.012C184.033 117.281 180.475 118.416 176.335 118.416C173.851 118.416 171.689 118.017 169.849 117.22C168.009 116.392 166.583 115.242 165.571 113.77C164.59 112.267 164.099 110.519 164.099 108.526C164.099 106.502 164.636 104.677 165.709 103.052C166.813 101.396 168.454 100.047 170.631 99.0042C169.834 98.0228 169.267 97.0875 168.929 96.1982C168.592 95.2782 168.423 94.2815 168.423 93.2082C168.423 91.6748 168.822 90.2795 169.619 89.0222C170.417 87.7648 171.567 86.7835 173.069 86.0782C174.603 85.3422 176.412 84.9742 178.497 84.9742C180.613 84.9742 182.407 85.3575 183.879 86.1242C185.351 86.8908 186.455 87.9182 187.191 89.2062C187.927 90.4942 188.265 91.9048 188.203 93.4382H180.797C180.828 92.6102 180.613 91.9815 180.153 91.5522C179.724 91.0922 179.141 90.8622 178.405 90.8622C177.669 90.8622 177.056 91.0768 176.565 91.5062C176.075 91.9355 175.829 92.4875 175.829 93.1622C175.829 93.8062 176.029 94.4808 176.427 95.1862C176.857 95.8915 177.516 96.7042 178.405 97.6242L186.271 105.306C186.333 105.153 186.409 104.969 186.501 104.754C186.624 104.539 186.747 104.294 186.869 104.018L188.571 101.12H196.437L194.229 105.122C193.401 106.931 192.451 108.649 191.377 110.274L199.151 117.91H189.997ZM176.703 112.068C178.758 112.068 180.583 111.485 182.177 110.32L175.001 103.374C172.793 104.509 171.689 106.042 171.689 107.974C171.689 109.139 172.134 110.121 173.023 110.918C173.943 111.685 175.17 112.068 176.703 112.068ZM201.153 96.4874C201.153 92.2678 202.066 88.5148 203.892 85.2283C205.717 81.9013 208.253 79.3249 211.499 77.4991C214.786 75.6327 218.498 74.6996 222.636 74.6996C227.708 74.6996 232.049 76.0385 235.661 78.7163C239.272 81.3942 241.686 85.0458 242.903 89.6711H231.461C230.609 87.8859 229.392 86.5267 227.81 85.5935C226.268 84.6603 224.503 84.1937 222.515 84.1937C219.309 84.1937 216.713 85.3095 214.725 87.541C212.737 89.7725 211.743 92.7547 211.743 96.4874C211.743 100.22 212.737 103.202 214.725 105.434C216.713 107.665 219.309 108.781 222.515 108.781C224.503 108.781 226.268 108.315 227.81 107.381C229.392 106.448 230.609 105.089 231.461 103.304H242.903C241.686 107.929 239.272 111.581 235.661 114.259C232.049 116.896 227.708 118.214 222.636 118.214C218.498 118.214 214.786 117.302 211.499 115.476C208.253 113.609 205.717 111.033 203.892 107.747C202.066 104.46 201.153 100.707 201.153 96.4874ZM264.734 118.397C261.407 118.397 258.405 117.687 255.727 116.267C253.09 114.847 251 112.818 249.459 110.181C247.957 107.544 247.207 104.46 247.207 100.93C247.207 97.4409 247.978 94.3776 249.519 91.7404C251.061 89.0625 253.171 87.0136 255.849 85.5935C258.527 84.1734 261.529 83.4634 264.856 83.4634C268.183 83.4634 271.186 84.1734 273.863 85.5935C276.541 87.0136 278.651 89.0625 280.193 91.7404C281.735 94.3776 282.506 97.4409 282.506 100.93C282.506 104.42 281.714 107.503 280.132 110.181C278.59 112.818 276.46 114.847 273.742 116.267C271.064 117.687 268.061 118.397 264.734 118.397ZM264.734 109.39C266.723 109.39 268.406 108.659 269.786 107.199C271.206 105.738 271.916 103.649 271.916 100.93C271.916 98.2118 271.226 96.1223 269.847 94.6616C268.508 93.201 266.844 92.4707 264.856 92.4707C262.828 92.4707 261.144 93.201 259.805 94.6616C258.466 96.0817 257.796 98.1712 257.796 100.93C257.796 103.649 258.446 105.738 259.744 107.199C261.083 108.659 262.746 109.39 264.734 109.39ZM298.434 72.8738V117.91H288.027V72.8738H298.434ZM316.383 72.8738V117.91H305.976V72.8738H316.383ZM355.937 100.382C355.937 101.356 355.876 102.371 355.754 103.425H332.202C332.364 105.535 333.033 107.158 334.21 108.294C335.427 109.39 336.908 109.937 338.653 109.937C341.249 109.937 343.055 108.842 344.069 106.651H355.146C354.578 108.883 353.543 110.891 352.042 112.676C350.581 114.461 348.735 115.861 346.504 116.876C344.272 117.89 341.777 118.397 339.018 118.397C335.691 118.397 332.729 117.687 330.132 116.267C327.536 114.847 325.507 112.818 324.046 110.181C322.586 107.544 321.855 104.46 321.855 100.93C321.855 97.4003 322.565 94.3168 323.985 91.6795C325.446 89.0422 327.475 87.0136 330.071 85.5935C332.668 84.1734 335.65 83.4634 339.018 83.4634C342.304 83.4634 345.226 84.1531 347.782 85.5326C350.338 86.9121 352.326 88.8799 353.746 91.4361C355.207 93.9922 355.937 96.9743 355.937 100.382ZM345.286 97.6438C345.286 95.8585 344.678 94.4385 343.461 93.3836C342.243 92.3287 340.722 91.8012 338.896 91.8012C337.152 91.8012 335.671 92.3084 334.453 93.3227C333.277 94.337 332.546 95.7774 332.262 97.6438H345.286ZM359.358 100.93C359.358 97.4003 360.068 94.3168 361.488 91.6795C362.949 89.0422 364.957 87.0136 367.513 85.5935C370.11 84.1734 373.072 83.4634 376.399 83.4634C380.659 83.4634 384.209 84.5792 387.049 86.8107C389.93 89.0422 391.817 92.1867 392.709 96.244H381.633C380.7 93.6473 378.894 92.349 376.216 92.349C374.309 92.349 372.788 93.0996 371.652 94.6008C370.516 96.0614 369.948 98.1712 369.948 100.93C369.948 103.689 370.516 105.819 371.652 107.321C372.788 108.781 374.309 109.511 376.216 109.511C378.894 109.511 380.7 108.213 381.633 105.616H392.709C391.817 109.593 389.93 112.717 387.049 114.989C384.169 117.261 380.618 118.397 376.399 118.397C373.072 118.397 370.11 117.687 367.513 116.267C364.957 114.847 362.949 112.818 361.488 110.181C360.068 107.544 359.358 104.46 359.358 100.93ZM417.203 109.085V117.91H411.909C408.135 117.91 405.194 116.997 403.084 115.171C400.974 113.305 399.919 110.282 399.919 106.103V92.5924H395.781V83.9503H399.919V75.6733H410.326V83.9503H417.143V92.5924H410.326V106.225C410.326 107.239 410.57 107.97 411.057 108.416C411.544 108.862 412.355 109.085 413.491 109.085H417.203Z" fill="white"/>
<path d="M213 58.7L227.729 27.02H311.198L325.939 58.7" stroke="white" stroke-width="9" stroke-linecap="round" stroke-linejoin="round"/>
<path d="M248.01 34V17.6456C248.01 10.6582 253.518 5 260.32 5H282.699C289.501 5 295.01 10.6582 295.01 17.6456V34" stroke="white" stroke-width="9" stroke-linecap="round" stroke-linejoin="round"/>
<path d="M219.16 45.46H234.869" stroke="white" stroke-width="9" stroke-linecap="round" stroke-linejoin="round"/>
<path d="M310.34 58.7002H326.049" stroke="white" stroke-width="9" stroke-linecap="round" stroke-linejoin="round"/>
<path fill-rule="evenodd" clip-rule="evenodd" d="M296.936 171C290.582 160.78 284.228 150.56 277.826 140.28C291.611 142.22 305.323 144.15 319.047 146.09C319.047 146.11 319.047 146.13 319.047 146.15C318.902 146.2 318.768 146.24 318.623 146.29C312.173 148.24 305.722 150.19 299.259 152.13C298.279 152.43 297.989 152.74 297.952 153.6C297.65 159.29 297.335 164.98 297.033 170.67C297.033 170.78 297.021 170.89 297.008 170.99C296.984 170.99 296.948 170.99 296.924 170.99L296.936 171Z" fill="white"/>
<path d="M275.769 157.45H209V131.08" stroke="white" stroke-width="9" stroke-linecap="round" stroke-linejoin="round"/>
<path d="M330.761 131.08V157.45H311.119" stroke="white" stroke-width="9" stroke-linecap="round" stroke-linejoin="round"/>
<path d="M209 140.28H224.709" stroke="white" stroke-width="9" stroke-linecap="round" stroke-linejoin="round"/>
</svg>
