<?xml version="1.0" encoding="UTF-8"?>
<svg id="Layer_2" data-name="Layer 2" xmlns="http://www.w3.org/2000/svg" viewBox="0 0 318.12 148">
  <defs>
    <style>
      .cls-1 {
        letter-spacing: -.01em;
      }

      .cls-1, .cls-2, .cls-3, .cls-4, .cls-5 {
        font-family: Poppins-SemiBold, 'Poppins SemiBold';
        font-weight: 600;
      }

      .cls-1, .cls-2, .cls-4, .cls-5 {
        fill: #6319d1;
        font-size: 60.86px;
      }

      .cls-6, .cls-7 {
        fill: none;
        stroke: #000;
        stroke-linecap: round;
        stroke-linejoin: round;
        stroke-width: 4px;
      }

      .cls-8 {
        fill: #000;
        font-family: Poppins-Light, 'Poppins Light';
        font-size: 42.71px;
        font-weight: 300;
        letter-spacing: 0em;
      }

      .cls-2 {
        letter-spacing: -.02em;
      }

      .cls-3 {
        font-size: 63.08px;
        letter-spacing: 0em;
      }

      .cls-3, .cls-9 {
        fill: #de5f1e;
      }

      .cls-4 {
        letter-spacing: 0em;
      }

      .cls-9 {
        stroke-width: 0px;
      }

      .cls-9, .cls-7 {
        fill-rule: evenodd;
      }

      .cls-5 {
        letter-spacing: 0em;
      }
    </style>
  </defs>
  <g id="OBJECTS">
    <g>
      <g>
        <text transform="translate(0 95.99)"><tspan><tspan class="cls-3" x="0" y="0">Click</tspan><tspan class="cls-8" x="120.91" y="0">&amp;</tspan><tspan class="cls-2" x="146.33" y="0">C</tspan><tspan class="cls-1" x="180.34" y="0">olle</tspan><tspan class="cls-4" x="270.53" y="0">c</tspan><tspan class="cls-5" x="297.98" y="0">t</tspan></tspan></text>
        <g>
          <polyline class="cls-7" points="156.16 49.7 168.33 18.02 237.3 18.02 249.48 49.7"/>
          <path class="cls-7" d="M185.41,24.91v-12.92c0-5.52,4.47-9.99,9.99-9.99h18.16c5.52,0,9.99,4.47,9.99,9.99v12.92"/>
        </g>
        <g>
          <path class="cls-9" d="M224.8,148c-5.25-10.22-10.5-20.44-15.79-30.72,11.39,1.94,22.72,3.87,34.06,5.81,0,.02,0,.04,0,.06-.12.05-.23.09-.35.14-5.33,1.95-10.66,3.9-16,5.84-.81.3-1.05.61-1.08,1.47-.25,5.69-.51,11.38-.76,17.07,0,.11-.01.22-.02.32-.02,0-.05,0-.07,0Z"/>
          <polyline class="cls-7" points="207.31 134.45 152.14 134.45 152.14 108.08"/>
          <polyline class="cls-7" points="252.75 108.08 252.75 134.45 236.52 134.45"/>
        </g>
      </g>
      <line class="cls-6" x1="161.25" y1="36.46" x2="174.23" y2="36.46"/>
      <line class="cls-6" x1="236.59" y1="49.7" x2="249.57" y2="49.7"/>
      <line class="cls-6" x1="152.14" y1="117.28" x2="165.12" y2="117.28"/>
    </g>
  </g>
</svg>